<svg width="180" height="180" viewBox="0 0 180 180" fill="none" xmlns="http://www.w3.org/2000/svg">
<g filter="url(#filter0_d_142_2)">
<circle cx="90" cy="80" r="50" fill="#5B72EE"/>
</g>
<g clip-path="url(#clip0_142_2)">
<path d="M98.75 80H82.25V85.75H98.75V80ZM106.398 66.4336L97.9852 57.6289C97.5984 57.2246 97.0742 57 96.5242 57H96V68.5H107V67.952C107 67.3859 106.785 66.8379 106.398 66.4336ZM93.25 69.2188V57H76.0625C74.9195 57 74 57.9613 74 59.1562V100.844C74 102.039 74.9195 103 76.0625 103H104.938C106.08 103 107 102.039 107 100.844V71.375H95.3125C94.1781 71.375 93.25 70.4047 93.25 69.2188ZM79.5 63.4688C79.5 63.0716 79.8077 62.75 80.1875 62.75H87.0625C87.4423 62.75 87.75 63.0716 87.75 63.4688V64.9062C87.75 65.3034 87.4423 65.625 87.0625 65.625H80.1875C79.8077 65.625 79.5 65.3034 79.5 64.9062V63.4688ZM79.5 69.2188C79.5 68.8216 79.8077 68.5 80.1875 68.5H87.0625C87.4423 68.5 87.75 68.8216 87.75 69.2188V70.6562C87.75 71.0534 87.4423 71.375 87.0625 71.375H80.1875C79.8077 71.375 79.5 71.0534 79.5 70.6562V69.2188ZM101.5 96.5312C101.5 96.9284 101.192 97.25 100.812 97.25H93.9375C93.5577 97.25 93.25 96.9284 93.25 96.5312V95.0938C93.25 94.6966 93.5577 94.375 93.9375 94.375H100.812C101.192 94.375 101.5 94.6966 101.5 95.0938V96.5312ZM101.5 78.5625V87.1875C101.5 87.9817 100.885 88.625 100.125 88.625H80.875C80.1153 88.625 79.5 87.9817 79.5 87.1875V78.5625C79.5 77.7683 80.1153 77.125 80.875 77.125H100.125C100.885 77.125 101.5 77.7683 101.5 78.5625Z" fill="white"/>
</g>
<defs>
<filter id="filter0_d_142_2" x="0" y="0" width="180" height="180" filterUnits="userSpaceOnUse" color-interpolation-filters="sRGB">
<feFlood flood-opacity="0" result="BackgroundImageFix"/>
<feColorMatrix in="SourceAlpha" type="matrix" values="0 0 0 0 0 0 0 0 0 0 0 0 0 0 0 0 0 0 127 0" result="hardAlpha"/>
<feOffset dy="10"/>
<feGaussianBlur stdDeviation="20"/>
<feColorMatrix type="matrix" values="0 0 0 0 0.212 0 0 0 0 0.238778 0 0 0 0 0.533333 0 0 0 0.06 0"/>
<feBlend mode="normal" in2="BackgroundImageFix" result="effect1_dropShadow_142_2"/>
<feBlend mode="normal" in="SourceGraphic" in2="effect1_dropShadow_142_2" result="shape"/>
</filter>
<clipPath id="clip0_142_2">
<rect width="33" height="46" fill="white" transform="translate(74 57)"/>
</clipPath>
</defs>
</svg>
