<svg width="180" height="180" viewBox="0 0 180 180" fill="none" xmlns="http://www.w3.org/2000/svg">
<g filter="url(#filter0_d_142_3)">
<circle cx="90" cy="74" r="50" fill="#F48C06"/>
</g>
<g clip-path="url(#clip0_142_3)">
<path d="M78 50C77.0532 50 76.2857 50.7675 76.2857 51.7143V55.1429H79.7142V51.7143C79.7142 50.7675 78.9467 50 78 50Z" fill="#F5F5FC"/>
<path d="M102 50C101.053 50 100.286 50.7675 100.286 51.7143V55.1429H103.714V51.7143C103.714 50.7675 102.947 50 102 50Z" fill="#F5F5FC"/>
<path d="M108.857 55.1428H103.714V62C103.714 62.9468 102.947 63.7143 102 63.7143C101.053 63.7143 100.286 62.9468 100.286 62V55.1428H79.7142V62C79.7142 62.9468 78.9467 63.7143 77.9999 63.7143C77.0531 63.7143 76.2856 62.9468 76.2856 62V55.1428H71.1429C68.3025 55.1428 66 57.4454 66 60.2857V92.8571C66 95.6974 68.3025 98 71.1429 98H108.857C111.697 98 114 95.6974 114 92.8571V60.2857C114 57.4454 111.697 55.1428 108.857 55.1428ZM110.571 92.8571C110.571 93.8039 109.804 94.5714 108.857 94.5714H71.1429C70.196 94.5714 69.4285 93.8039 69.4285 92.8571V70.5714H110.571V92.8571Z" fill="#F5F5FC"/>
<path d="M79.7142 73.9999H76.2857C75.3389 73.9999 74.5714 74.7674 74.5714 75.7142C74.5714 76.661 75.3389 77.4285 76.2857 77.4285H79.7142C80.661 77.4285 81.4285 76.661 81.4285 75.7142C81.4285 74.7674 80.661 73.9999 79.7142 73.9999Z" fill="#F5F5FC"/>
<path d="M91.7143 73.9999H88.2857C87.3389 73.9999 86.5714 74.7674 86.5714 75.7142C86.5714 76.661 87.3389 77.4285 88.2857 77.4285H91.7143C92.6611 77.4285 93.4286 76.661 93.4286 75.7142C93.4286 74.7674 92.6611 73.9999 91.7143 73.9999Z" fill="#F5F5FC"/>
<path d="M103.714 73.9999H100.286C99.3389 73.9999 98.5714 74.7674 98.5714 75.7142C98.5714 76.661 99.3389 77.4285 100.286 77.4285H103.714C104.661 77.4285 105.429 76.661 105.429 75.7142C105.429 74.7674 104.661 73.9999 103.714 73.9999Z" fill="#F5F5FC"/>
<path d="M79.7142 80.8571H76.2857C75.3389 80.8571 74.5714 81.6246 74.5714 82.5714C74.5714 83.5182 75.3389 84.2857 76.2857 84.2857H79.7142C80.661 84.2857 81.4285 83.5182 81.4285 82.5714C81.4285 81.6246 80.661 80.8571 79.7142 80.8571Z" fill="#F5F5FC"/>
<path d="M91.7143 80.8571H88.2857C87.3389 80.8571 86.5714 81.6246 86.5714 82.5714C86.5714 83.5182 87.3389 84.2857 88.2857 84.2857H91.7143C92.6611 84.2857 93.4286 83.5182 93.4286 82.5714C93.4286 81.6246 92.6611 80.8571 91.7143 80.8571Z" fill="#F5F5FC"/>
<path d="M103.714 80.8571H100.286C99.3389 80.8571 98.5714 81.6246 98.5714 82.5714C98.5714 83.5182 99.3389 84.2857 100.286 84.2857H103.714C104.661 84.2857 105.429 83.5182 105.429 82.5714C105.428 81.6246 104.661 80.8571 103.714 80.8571Z" fill="#F5F5FC"/>
<path d="M79.7142 87.7142H76.2857C75.3389 87.7142 74.5714 88.4817 74.5714 89.4286C74.5714 90.3754 75.3389 91.1428 76.2857 91.1428H79.7142C80.661 91.1428 81.4285 90.3753 81.4285 89.4284C81.4285 88.4816 80.661 87.7142 79.7142 87.7142Z" fill="#F5F5FC"/>
<path d="M91.7143 87.7142H88.2857C87.3389 87.7142 86.5714 88.4817 86.5714 89.4285C86.5714 90.3754 87.3389 91.1429 88.2857 91.1429H91.7143C92.6611 91.1429 93.4286 90.3754 93.4286 89.4285C93.4286 88.4817 92.6611 87.7142 91.7143 87.7142Z" fill="#F5F5FC"/>
<path d="M103.714 87.7142H100.286C99.3389 87.7142 98.5714 88.4817 98.5714 89.4285C98.5714 90.3754 99.3389 91.1429 100.286 91.1429H103.714C104.661 91.1429 105.429 90.3754 105.429 89.4285C105.429 88.4817 104.661 87.7142 103.714 87.7142Z" fill="#F5F5FC"/>
</g>
<defs>
<filter id="filter0_d_142_3" x="0" y="0" width="180" height="180" filterUnits="userSpaceOnUse" color-interpolation-filters="sRGB">
<feFlood flood-opacity="0" result="BackgroundImageFix"/>
<feColorMatrix in="SourceAlpha" type="matrix" values="0 0 0 0 0 0 0 0 0 0 0 0 0 0 0 0 0 0 127 0" result="hardAlpha"/>
<feOffset dy="16"/>
<feGaussianBlur stdDeviation="20"/>
<feColorMatrix type="matrix" values="0 0 0 0 0.146118 0 0 0 0 0.172389 0 0 0 0 0.441667 0 0 0 0.1 0"/>
<feBlend mode="normal" in2="BackgroundImageFix" result="effect1_dropShadow_142_3"/>
<feBlend mode="normal" in="SourceGraphic" in2="effect1_dropShadow_142_3" result="shape"/>
</filter>
<clipPath id="clip0_142_3">
<rect width="48" height="48" fill="white" transform="translate(66 50)"/>
</clipPath>
</defs>
</svg>
