<svg width="150" height="83" viewBox="0 0 150 83" fill="none" xmlns="http://www.w3.org/2000/svg">
<path d="M37.9645 4.94975C39.9171 2.99713 43.0829 2.99713 45.0355 4.94975L78.0502 37.9645C80.0029 39.9171 80.0029 43.0829 78.0503 45.0355L45.0355 78.0502C43.0829 80.0029 39.9171 80.0029 37.9645 78.0503L4.94975 45.0355C2.99713 43.0829 2.99713 39.9171 4.94975 37.9645L37.9645 4.94975Z" stroke="#26C1F2" stroke-width="2"/>
<path d="M32.112 52.224C30.4693 52.224 28.9973 51.9573 27.696 51.424C26.3947 50.8907 25.3493 50.1013 24.56 49.056C23.792 48.0107 23.3867 46.752 23.344 45.28H29.168C29.2533 46.112 29.5413 46.752 30.032 47.2C30.5227 47.6267 31.1627 47.84 31.952 47.84C32.7627 47.84 33.4027 47.6587 33.872 47.296C34.3413 46.912 34.576 46.3893 34.576 45.728C34.576 45.1733 34.384 44.7147 34 44.352C33.6373 43.9893 33.1787 43.6907 32.624 43.456C32.0907 43.2213 31.3227 42.9547 30.32 42.656C28.8693 42.208 27.6853 41.76 26.768 41.312C25.8507 40.864 25.0613 40.2027 24.4 39.328C23.7387 38.4533 23.408 37.312 23.408 35.904C23.408 33.8133 24.1653 32.1813 25.68 31.008C27.1947 29.8133 29.168 29.216 31.6 29.216C34.0747 29.216 36.0693 29.8133 37.584 31.008C39.0987 32.1813 39.9093 33.824 40.016 35.936H34.096C34.0533 35.2107 33.7867 34.6453 33.296 34.24C32.8053 33.8133 32.176 33.6 31.408 33.6C30.7467 33.6 30.2133 33.7813 29.808 34.144C29.4027 34.4853 29.2 34.9867 29.2 35.648C29.2 36.3733 29.5413 36.9387 30.224 37.344C30.9067 37.7493 31.9733 38.1867 33.424 38.656C34.8747 39.1467 36.048 39.616 36.944 40.064C37.8613 40.512 38.6507 41.1627 39.312 42.016C39.9733 42.8693 40.304 43.968 40.304 45.312C40.304 46.592 39.9733 47.7547 39.312 48.8C38.672 49.8453 37.7333 50.6773 36.496 51.296C35.2587 51.9147 33.7973 52.224 32.112 52.224ZM55.8635 52L50.4235 44.512V52H44.9515V28.32H50.4235V41.408L55.8315 34.144H62.5835L55.1595 43.104L62.6475 52H55.8635ZM68.7648 32.288C67.8048 32.288 67.0154 32.0107 66.3968 31.456C65.7994 30.88 65.5008 30.176 65.5008 29.344C65.5008 28.4907 65.7994 27.7867 66.3968 27.232C67.0154 26.656 67.8048 26.368 68.7648 26.368C69.7034 26.368 70.4714 26.656 71.0688 27.232C71.6874 27.7867 71.9968 28.4907 71.9968 29.344C71.9968 30.176 71.6874 30.88 71.0688 31.456C70.4714 32.0107 69.7034 32.288 68.7648 32.288ZM71.4848 34.144V52H66.0128V34.144H71.4848ZM82.2023 28.32V52H76.7303V28.32H82.2023ZM92.9197 28.32V52H87.4477V28.32H92.9197ZM100.917 32.288C99.9573 32.288 99.1679 32.0107 98.5493 31.456C97.9519 30.88 97.6533 30.176 97.6533 29.344C97.6533 28.4907 97.9519 27.7867 98.5493 27.232C99.1679 26.656 99.9573 26.368 100.917 26.368C101.856 26.368 102.624 26.656 103.221 27.232C103.84 27.7867 104.149 28.4907 104.149 29.344C104.149 30.176 103.84 30.88 103.221 31.456C102.624 32.0107 101.856 32.288 100.917 32.288ZM103.637 34.144V52H98.1653V34.144H103.637ZM119.763 33.952C121.853 33.952 123.517 34.6347 124.755 36C126.013 37.344 126.643 39.2 126.643 41.568V52H121.203V42.304C121.203 41.1093 120.893 40.1813 120.275 39.52C119.656 38.8587 118.824 38.528 117.779 38.528C116.733 38.528 115.901 38.8587 115.283 39.52C114.664 40.1813 114.355 41.1093 114.355 42.304V52H108.883V34.144H114.355V36.512C114.909 35.7227 115.656 35.104 116.595 34.656C117.533 34.1867 118.589 33.952 119.763 33.952ZM148.557 42.784C148.557 43.296 148.525 43.8293 148.461 44.384H136.077C136.163 45.4933 136.515 46.3467 137.133 46.944C137.773 47.52 138.552 47.808 139.469 47.808C140.835 47.808 141.784 47.232 142.317 46.08H148.141C147.843 47.2533 147.299 48.3093 146.509 49.248C145.741 50.1867 144.771 50.9227 143.597 51.456C142.424 51.9893 141.112 52.256 139.661 52.256C137.912 52.256 136.355 51.8827 134.989 51.136C133.624 50.3893 132.557 49.3227 131.789 47.936C131.021 46.5493 130.637 44.928 130.637 43.072C130.637 41.216 131.011 39.5947 131.757 38.208C132.525 36.8213 133.592 35.7547 134.957 35.008C136.323 34.2613 137.891 33.888 139.661 33.888C141.389 33.888 142.925 34.2507 144.269 34.976C145.613 35.7013 146.659 36.736 147.405 38.08C148.173 39.424 148.557 40.992 148.557 42.784ZM142.957 41.344C142.957 40.4053 142.637 39.6587 141.997 39.104C141.357 38.5493 140.557 38.272 139.597 38.272C138.68 38.272 137.901 38.5387 137.261 39.072C136.643 39.6053 136.259 40.3627 136.109 41.344H142.957Z" fill="white"/>
</svg>
